<?xml version="1.0" encoding="UTF-8" standalone="no"?>
<!-- Created with Inkscape (http://www.inkscape.org/) -->

<svg
   xmlns:dc="http://purl.org/dc/elements/1.1/"
   xmlns:cc="http://creativecommons.org/ns#"
   xmlns:rdf="http://www.w3.org/1999/02/22-rdf-syntax-ns#"
   xmlns:svg="http://www.w3.org/2000/svg"
   xmlns="http://www.w3.org/2000/svg"
   xmlns:sodipodi="http://sodipodi.sourceforge.net/DTD/sodipodi-0.dtd"
   xmlns:inkscape="http://www.inkscape.org/namespaces/inkscape"
   width="1024mm"
   height="768mm"
   viewBox="0 0 3628.3464 2721.2598"
   id="svg2"
   version="1.1"
   inkscape:version="0.91pre3 r13670"
   sodipodi:docname="header.svg">
  <defs
     id="defs4" />
  <sodipodi:namedview
     id="base"
     pagecolor="#ffffff"
     bordercolor="#666666"
     borderopacity="1.0"
     inkscape:pageopacity="0"
     inkscape:pageshadow="2"
     inkscape:zoom="0.24748737"
     inkscape:cx="1634.829"
     inkscape:cy="1249.5549"
     inkscape:document-units="px"
     inkscape:current-layer="layer1"
     showgrid="false"
     inkscape:window-width="1920"
     inkscape:window-height="1017"
     inkscape:window-x="-8"
     inkscape:window-y="-8"
     inkscape:window-maximized="1" />
  <metadata
     id="metadata7">
    <rdf:RDF>
      <cc:Work
         rdf:about="">
        <dc:format>image/svg+xml</dc:format>
        <dc:type
           rdf:resource="http://purl.org/dc/dcmitype/StillImage" />
        <dc:title></dc:title>
      </cc:Work>
    </rdf:RDF>
  </metadata>
  <g
     inkscape:label="Layer 1"
     inkscape:groupmode="layer"
     id="layer1"
     transform="translate(0,1668.8976)">
    <path
       sodipodi:nodetypes="cccccc"
       inkscape:connector-curvature="0"
       id="path4163"
       d="m 3632.2918,-996.33365 c 0,0 -170.4034,-164.62475 -454.4092,16.8847 0,0 -69.4238,-422.11495 -713.1703,-265.93255 0,0 -820.4611,-806.2394 -1388.473,118.1923 0,0 -384.98551,-135.0768 -624.81267,164.62464 0,0 -88.3575,-194.17284 -441.7868428,-92.86534 l 0,-608.1489 3627.8806128,0 z"
       style="fill:#707070;fill-opacity:0.10839162;fill-rule:evenodd;stroke:none;stroke-width:4.5;stroke-linecap:butt;stroke-linejoin:miter;stroke-miterlimit:4;stroke-dasharray:none;stroke-opacity:1" />
    <rect
       style="opacity:1;fill:none;fill-opacity:1;stroke:#000000;stroke-width:2.20000005;stroke-linecap:round;stroke-linejoin:round;stroke-miterlimit:4;stroke-dasharray:none;stroke-opacity:1"
       id="rect4171"
       width="145.54863"
       height="143.40578"
       x="-314.66251"
       y="199.94138" />
    <path
       sodipodi:nodetypes="cccccc"
       inkscape:connector-curvature="0"
       id="path4153"
       d="m -389.41763,193.28663 c 0,0 -6.81853,-9.84898 -18.18275,1.01016 0,0 -2.77792,-25.25382 -28.53681,-15.90991 0,0 -32.82995,-48.23479 -55.55839,7.07107 0,0 -15.40483,-8.08122 -25.00128,9.84899 0,0 -3.53554,-11.61676 -17.67767,-5.55584"
       style="fill:none;fill-rule:evenodd;stroke:#000000;stroke-width:1px;stroke-linecap:butt;stroke-linejoin:miter;stroke-opacity:1" />
    <path
       style="fill:none;fill-rule:evenodd;stroke:#000000;stroke-width:4.5;stroke-linecap:butt;stroke-linejoin:miter;stroke-miterlimit:4;stroke-dasharray:none;stroke-opacity:1"
       d="m -3.9898441,442.97251 c 0,0 -6.8185299,-9.84898 -18.1827499,1.01016 0,0 -2.77792,-25.25382 -28.53681,-15.90991 0,0 -32.82995,-48.23479 -55.558386,7.07107 0,0 -15.40482,-8.08122 -25.00127,9.84899 0,0 -3.53554,-11.61676 -17.67767,-5.55584"
       id="path4149"
       inkscape:connector-curvature="0"
       sodipodi:nodetypes="cccccc" />
    <text
       sodipodi:linespacing="125%"
       id="text4159"
       y="311.3884"
       x="-592.26178"
       style="font-style:normal;font-weight:normal;font-size:23.01269531px;line-height:125%;font-family:sans-serif;letter-spacing:0px;word-spacing:0px;fill:#000000;fill-opacity:1;stroke:none;stroke-width:1px;stroke-linecap:butt;stroke-linejoin:miter;stroke-opacity:1"
       xml:space="preserve"><tspan
         y="311.3884"
         x="-592.26178"
         id="tspan4161"
         sodipodi:role="line">bungalow</tspan></text>
    <text
       xml:space="preserve"
       style="font-style:normal;font-weight:normal;font-size:23.01269531px;line-height:125%;font-family:sans-serif;letter-spacing:0px;word-spacing:0px;fill:#000000;fill-opacity:1;stroke:none;stroke-width:1px;stroke-linecap:butt;stroke-linejoin:miter;stroke-opacity:1"
       x="-265.98251"
       y="152.0368"
       id="text4155"
       sodipodi:linespacing="125%"><tspan
         sodipodi:role="line"
         id="tspan4157"
         x="-265.98251"
         y="152.0368">doktrinen</tspan></text>
    <path
       style="opacity:1;fill:#0591ff;fill-opacity:1;stroke:none;stroke-width:2.20000005;stroke-linecap:round;stroke-linejoin:round;stroke-miterlimit:4;stroke-dasharray:none;stroke-opacity:1"
       id="path4177"
       sodipodi:type="arc"
       sodipodi:cx="-81.898628"
       sodipodi:cy="485.76727"
       sodipodi:rx="16.071428"
       sodipodi:ry="16.071428"
       sodipodi:start="3.3217455"
       sodipodi:end="3.3083589"
       sodipodi:open="true"
       d="m -97.709962,482.8876 a 16.071428,16.071428 0 0 1 18.63808,-12.94121 16.071428,16.071428 0 0 1 13.003507,18.59467 16.071428,16.071428 0 0 1 -18.551043,13.06566 16.071428,16.071428 0 0 1 -13.127675,-18.50721" />
  </g>
</svg>
