<?xml version="1.0" encoding="UTF-8" standalone="no"?>
<!-- Created with Inkscape (http://www.inkscape.org/) -->

<svg
   xmlns:dc="http://purl.org/dc/elements/1.1/"
   xmlns:cc="http://creativecommons.org/ns#"
   xmlns:rdf="http://www.w3.org/1999/02/22-rdf-syntax-ns#"
   xmlns:svg="http://www.w3.org/2000/svg"
   xmlns="http://www.w3.org/2000/svg"
   xmlns:sodipodi="http://sodipodi.sourceforge.net/DTD/sodipodi-0.dtd"
   xmlns:inkscape="http://www.inkscape.org/namespaces/inkscape"
   width="1024mm"
   height="768mm"
   viewBox="0 0 3628.3464 2721.2598"
   id="svg2"
   version="1.1"
   inkscape:version="0.91pre3 r13670"
   sodipodi:docname="header_layered_2.svg"
   inkscape:export-filename="C:\Users\Alecca\Documents\bungalowdoctrine\images\bg_layer1.png"
   inkscape:export-xdpi="90"
   inkscape:export-ydpi="90">
  <defs
     id="defs4" />
  <sodipodi:namedview
     id="base"
     pagecolor="#ffffff"
     bordercolor="#666666"
     borderopacity="1.0"
     inkscape:pageopacity="0"
     inkscape:pageshadow="2"
     inkscape:zoom="0.24748737"
     inkscape:cx="1783.2938"
     inkscape:cy="1465.8376"
     inkscape:document-units="px"
     inkscape:current-layer="layer1"
     showgrid="false"
     inkscape:window-width="1920"
     inkscape:window-height="1017"
     inkscape:window-x="-8"
     inkscape:window-y="-8"
     inkscape:window-maximized="1"
     borderlayer="true" />
  <metadata
     id="metadata7">
    <rdf:RDF>
      <cc:Work
         rdf:about="">
        <dc:format>image/svg+xml</dc:format>
        <dc:type
           rdf:resource="http://purl.org/dc/dcmitype/StillImage" />
        <dc:title></dc:title>
      </cc:Work>
    </rdf:RDF>
  </metadata>
  <g
     inkscape:label="Layer 1"
     inkscape:groupmode="layer"
     id="layer1"
     transform="translate(0,1668.8976)">
    <path
       style="fill:#ffffff;fill-opacity:1;fill-rule:evenodd;stroke:none;stroke-width:1px;stroke-linecap:butt;stroke-linejoin:miter;stroke-opacity:1"
       d="m -24.243637,-1414.9498 c 0,0 130.880447,-268.2307 392.641347,-53.6462 0,0 310.84115,-464.933 752.56269,5.9607 0,0 555.0087,-492.6698 1227.0043,-149.017 0,0 449.9015,-256.3092 736.2026,125.1743 0,0 374.8777,-333.7981 571.1984,5.9607 l 0,1180.36598 -3679.609337,0 0,-1108.83788 z"
       id="path4262"
       inkscape:connector-curvature="0"
       sodipodi:nodetypes="cccccccccc" />
    <rect
       style="opacity:1;fill:none;fill-opacity:1;stroke:#000000;stroke-width:2.20000005;stroke-linecap:round;stroke-linejoin:round;stroke-miterlimit:4;stroke-dasharray:none;stroke-opacity:1"
       id="rect4171"
       width="145.54863"
       height="143.40578"
       x="4121.9277"
       y="-187.95721" />
    <path
       sodipodi:nodetypes="cccccc"
       inkscape:connector-curvature="0"
       id="path4153"
       d="m 4047.1724,-194.61195 c 0,0 -6.8185,-9.84898 -18.1827,1.01016 0,0 -2.778,-25.25382 -28.5369,-15.90991 0,0 -32.8299,-48.23479 -55.5583,7.07107 0,0 -15.4049,-8.08122 -25.0013,9.84899 0,0 -3.5356,-11.61676 -17.6777,-5.55584"
       style="fill:none;fill-rule:evenodd;stroke:#000000;stroke-width:1px;stroke-linecap:butt;stroke-linejoin:miter;stroke-opacity:1" />
    <path
       style="fill:none;fill-rule:evenodd;stroke:#000000;stroke-width:4.5;stroke-linecap:butt;stroke-linejoin:miter;stroke-miterlimit:4;stroke-dasharray:none;stroke-opacity:1"
       d="m 4432.6002,55.073928 c 0,0 -6.8185,-9.84898 -18.1828,1.01016 0,0 -2.7779,-25.25382 -28.5368,-15.90991 0,0 -32.8299,-48.2347905 -55.5584,7.07107 0,0 -15.4048,-8.08122 -25.0012,9.84899 0,0 -3.5356,-11.61676 -17.6777,-5.55584"
       id="path4149"
       inkscape:connector-curvature="0"
       sodipodi:nodetypes="cccccc" />
    <text
       sodipodi:linespacing="125%"
       id="text4159"
       y="-76.510185"
       x="3844.3284"
       style="font-style:normal;font-weight:normal;font-size:23.01269531px;line-height:125%;font-family:sans-serif;letter-spacing:0px;word-spacing:0px;fill:#000000;fill-opacity:1;stroke:none;stroke-width:1px;stroke-linecap:butt;stroke-linejoin:miter;stroke-opacity:1"
       xml:space="preserve"><tspan
         y="-76.510185"
         x="3844.3284"
         id="tspan4161"
         sodipodi:role="line">bungalow</tspan></text>
    <text
       xml:space="preserve"
       style="font-style:normal;font-weight:normal;font-size:23.01269531px;line-height:125%;font-family:sans-serif;letter-spacing:0px;word-spacing:0px;fill:#000000;fill-opacity:1;stroke:none;stroke-width:1px;stroke-linecap:butt;stroke-linejoin:miter;stroke-opacity:1"
       x="4170.6074"
       y="-235.86179"
       id="text4155"
       sodipodi:linespacing="125%"><tspan
         sodipodi:role="line"
         id="tspan4157"
         x="4170.6074"
         y="-235.86179">doktrinen</tspan></text>
    <path
       style="opacity:1;fill:#0591ff;fill-opacity:1;stroke:none;stroke-width:2.20000005;stroke-linecap:round;stroke-linejoin:round;stroke-miterlimit:4;stroke-dasharray:none;stroke-opacity:1"
       id="path4177"
       sodipodi:type="arc"
       sodipodi:cx="4354.6914"
       sodipodi:cy="97.86869"
       sodipodi:rx="16.071428"
       sodipodi:ry="16.071428"
       sodipodi:start="3.3217455"
       sodipodi:end="3.3083589"
       sodipodi:open="true"
       d="m 4338.8801,94.989013 a 16.071428,16.071428 0 0 1 18.6381,-12.941205 16.071428,16.071428 0 0 1 13.0035,18.594662 16.071428,16.071428 0 0 1 -18.5511,13.06567 16.071428,16.071428 0 0 1 -13.1277,-18.507216" />
  </g>
</svg>
